<svg xmlns="http://www.w3.org/2000/svg" width="586" height="614" viewBox="0 0 586 614"><g class="visx-group" transform="translate(0, 40)"><svg x="0" y="0" font-size="12" style="overflow:visible"><text transform="" y="26" x="0" height="52" fill="#6D6781" font-size="12" text-anchor="start"><tspan x="0" dy="-1.145em">bg</tspan><tspan x="0" dy="1em">292d3e</tspan><tspan x="0" dy="1em">hs</tspan><tspan x="0" dy="1em">285-271</tspan></text></svg><svg x="0" y="0" font-size="12" style="overflow:visible"><text transform="" y="78" x="0" height="52" fill="#6D6781" font-size="12" text-anchor="start"><tspan x="0" dy="-1.145em">fn green</tspan><tspan x="0" dy="1em">44bb99</tspan><tspan x="0" dy="1em">hs</tspan><tspan x="0" dy="1em">165-190</tspan></text></svg><svg x="0" y="0" font-size="12" style="overflow:visible"><text transform="" y="130" x="0" height="52" fill="#6D6781" font-size="12" text-anchor="start"><tspan x="0" dy="-1.145em">blue</tspan><tspan x="0" dy="1em">77aadd</tspan><tspan x="0" dy="1em">hs</tspan><tspan x="0" dy="1em">247-260</tspan></text></svg><svg x="0" y="0" font-size="12" style="overflow:visible"><text transform="" y="182" x="0" height="52" fill="#6D6781" font-size="12" text-anchor="start"><tspan x="0" dy="-1.145em">cyan</tspan><tspan x="0" dy="1em">99DDFF</tspan><tspan x="0" dy="1em">hs</tspan><tspan x="0" dy="1em">229-245</tspan></text></svg><svg x="0" y="0" font-size="12" style="overflow:visible"><text transform="" y="234" x="0" height="52" fill="#6D6781" font-size="12" text-anchor="start"><tspan x="0" dy="-1.145em">str green</tspan><tspan x="0" dy="1em">BBCC33</tspan><tspan x="0" dy="1em">hs</tspan><tspan x="0" dy="1em">113-135</tspan></text></svg><svg x="0" y="0" font-size="12" style="overflow:visible"><text transform="" y="286" x="0" height="52" fill="#6D6781" font-size="12" text-anchor="start"><tspan x="0" dy="-0.645em">taupe</tspan><tspan x="0" dy="1em">cac0a9</tspan><tspan x="0" dy="1em">hs 96-50</tspan></text></svg><svg x="0" y="0" font-size="12" style="overflow:visible"><text transform="" y="338" x="0" height="52" fill="#6D6781" font-size="12" text-anchor="start"><tspan x="0" dy="-0.145em">gray</tspan><tspan x="0" dy="1em">dddddd</tspan></text></svg><svg x="0" y="0" font-size="12" style="overflow:visible"><text transform="" y="390" x="0" height="52" fill="#6D6781" font-size="12" text-anchor="start"><tspan x="0" dy="-0.645em">orange</tspan><tspan x="0" dy="1em">ee8866</tspan><tspan x="0" dy="1em">hs 42-30</tspan></text></svg><svg x="0" y="0" font-size="12" style="overflow:visible"><text transform="" y="442" x="0" height="52" fill="#6D6781" font-size="12" text-anchor="start"><tspan x="0" dy="-1.145em">yellow</tspan><tspan x="0" dy="1em">eedd88</tspan><tspan x="0" dy="1em">hs</tspan><tspan x="0" dy="1em">100-85</tspan></text></svg><svg x="0" y="0" font-size="12" style="overflow:visible"><text transform="" y="494" x="0" height="52" fill="#6D6781" font-size="12" text-anchor="start"><tspan x="0" dy="-0.645em">pink</tspan><tspan x="0" dy="1em">ffaabb hs</tspan><tspan x="0" dy="1em">12-350</tspan></text></svg><svg x="0" y="0" font-size="12" style="overflow:visible"><text transform="" y="546" x="0" height="52" fill="#6D6781" font-size="12" text-anchor="start"><tspan x="0" dy="-0.645em">comment</tspan><tspan x="0" dy="1em">gray</tspan><tspan x="0" dy="1em">7e818b</tspan></text></svg></g><g class="visx-group" transform="translate(64, 0)"><svg x="0" y="0" font-size="12px" style="overflow:visible"><text transform="" y="20" x="20" height="40" fill="#6D6781" font-size="12px" text-anchor="middle"><tspan x="20" dy="0.355em">50</tspan></text></svg><svg x="0" y="0" font-size="12px" style="overflow:visible"><text transform="" y="20" x="60" height="40" fill="#6D6781" font-size="12px" text-anchor="middle"><tspan x="60" dy="0.355em">125</tspan></text></svg><svg x="0" y="0" font-size="12px" style="overflow:visible"><text transform="" y="20" x="100" height="40" fill="#6D6781" font-size="12px" text-anchor="middle"><tspan x="100" dy="0.355em">200</tspan></text></svg><svg x="0" y="0" font-size="12px" style="overflow:visible"><text transform="" y="20" x="140" height="40" fill="#6D6781" font-size="12px" text-anchor="middle"><tspan x="140" dy="0.355em">275</tspan></text></svg><svg x="0" y="0" font-size="12px" style="overflow:visible"><text transform="" y="20" x="180" height="40" fill="#6D6781" font-size="12px" text-anchor="middle"><tspan x="180" dy="0.355em">350</tspan></text></svg><svg x="0" y="0" font-size="12px" style="overflow:visible"><text transform="" y="20" x="220" height="40" fill="#6D6781" font-size="12px" text-anchor="middle"><tspan x="220" dy="0.355em">400</tspan></text></svg><svg x="0" y="0" font-size="12px" style="overflow:visible"><text transform="" y="20" x="260" height="40" fill="#6D6781" font-size="12px" text-anchor="middle"><tspan x="260" dy="0.355em">475</tspan></text></svg><svg x="0" y="0" font-size="12px" style="overflow:visible"><text transform="" y="20" x="300" height="40" fill="#6D6781" font-size="12px" text-anchor="middle"><tspan x="300" dy="0.355em">550</tspan></text></svg><svg x="0" y="0" font-size="12px" style="overflow:visible"><text transform="" y="20" x="340" height="40" fill="#6D6781" font-size="12px" text-anchor="middle"><tspan x="340" dy="0.355em">625</tspan></text></svg><svg x="0" y="0" font-size="12px" style="overflow:visible"><text transform="" y="20" x="380" height="40" fill="#6D6781" font-size="12px" text-anchor="middle"><tspan x="380" dy="0.355em">700</tspan></text></svg><svg x="0" y="0" font-size="12px" style="overflow:visible"><text transform="" y="20" x="420" height="40" fill="#6D6781" font-size="12px" text-anchor="middle"><tspan x="420" dy="0.355em">750</tspan></text></svg><svg x="0" y="0" font-size="12px" style="overflow:visible"><text transform="" y="20" x="460" height="40" fill="#6D6781" font-size="12px" text-anchor="middle"><tspan x="460" dy="0.355em">825</tspan></text></svg><svg x="0" y="0" font-size="12px" style="overflow:visible"><text transform="" y="20" x="500" height="40" fill="#6D6781" font-size="12px" text-anchor="middle"><tspan x="500" dy="0.355em">900</tspan></text></svg></g><g class="visx-group" transform="translate(64, 40)"><rect id="bg 292d3e hs 285-271/50" fill="#ebebee" y="0" x="0" width="40" height="52"></rect><rect id="fn green 44bb99 hs 165-190/50" fill="#c7f9e1" y="52" x="0" width="40" height="52"></rect><rect id="blue 77aadd hs 247-260/50" fill="#e3ecf5" y="104" x="0" width="40" height="52"></rect><rect id="cyan 99DDFF hs 229-245/50" fill="#d6f0fd" y="156" x="0" width="40" height="52"></rect><rect id="str green BBCC33 hs 113-135/50" fill="#ecf66e" y="208" x="0" width="40" height="52"></rect><rect id="taupe cac0a9 hs 96-50/50" fill="#eeebdf" y="260" x="0" width="40" height="52"></rect><rect id="gray dddddd/50" fill="#ebebeb" y="312" x="0" width="40" height="52"></rect><rect id="orange ee8866 hs 42-30/50" fill="#f8e7e1" y="364" x="0" width="40" height="52"></rect><rect id="yellow eedd88 hs 100-85/50" fill="#f5edba" y="416" x="0" width="40" height="52"></rect><rect id="pink ffaabb hs 12-350/50" fill="#fce4e7" y="468" x="0" width="40" height="52"></rect><rect id="comment gray 7e818b/50" fill="#ebebec" y="520" x="0" width="40" height="52"></rect><rect id="bg 292d3e hs 285-271/125" fill="#d3d3db" y="0" x="40" width="40" height="52"></rect><rect id="fn green 44bb99 hs 165-190/125" fill="#6df1c1" y="52" x="40" width="40" height="52"></rect><rect id="blue 77aadd hs 247-260/125" fill="#c2d7ec" y="104" x="40" width="40" height="52"></rect><rect id="cyan 99DDFF hs 229-245/125" fill="#99ddff" y="156" x="40" width="40" height="52"></rect><rect id="str green BBCC33 hs 113-135/125" fill="#d2e049" y="208" x="40" width="40" height="52"></rect><rect id="taupe cac0a9 hs 96-50/125" fill="#dcd4bc" y="260" x="40" width="40" height="52"></rect><rect id="gray dddddd/125" fill="#dddddd" y="312" x="40" width="40" height="52"></rect><rect id="orange ee8866 hs 42-30/125" fill="#f3caba" y="364" x="40" width="40" height="52"></rect><rect id="yellow eedd88 hs 100-85/125" fill="#eedd88" y="416" x="40" width="40" height="52"></rect><rect id="pink ffaabb hs 12-350/125" fill="#fdc2cb" y="468" x="40" width="40" height="52"></rect><rect id="comment gray 7e818b/125" fill="#d3d4d7" y="520" x="40" width="40" height="52"></rect><rect id="bg 292d3e hs 285-271/200" fill="#bcbdc9" y="0" x="80" width="40" height="52"></rect><rect id="fn green 44bb99 hs 165-190/200" fill="#57d8af" y="52" x="80" width="40" height="52"></rect><rect id="blue 77aadd hs 247-260/200" fill="#9fc2e5" y="104" x="80" width="40" height="52"></rect><rect id="cyan 99DDFF hs 229-245/200" fill="#5fcbff" y="156" x="80" width="40" height="52"></rect><rect id="str green BBCC33 hs 113-135/200" fill="#bbcc33" y="208" x="80" width="40" height="52"></rect><rect id="taupe cac0a9 hs 96-50/200" fill="#cac0a9" y="260" x="80" width="40" height="52"></rect><rect id="gray dddddd/200" fill="#bebebe" y="312" x="80" width="40" height="52"></rect><rect id="orange ee8866 hs 42-30/200" fill="#f1aa92" y="364" x="80" width="40" height="52"></rect><rect id="yellow eedd88 hs 100-85/200" fill="#d0be6c" y="416" x="80" width="40" height="52"></rect><rect id="pink ffaabb hs 12-350/200" fill="#ffaabb" y="468" x="80" width="40" height="52"></rect><rect id="comment gray 7e818b/200" fill="#bcbdc2" y="520" x="80" width="40" height="52"></rect><rect id="bg 292d3e hs 285-271/275" fill="#a5a6b7" y="0" x="120" width="40" height="52"></rect><rect id="fn green 44bb99 hs 165-190/275" fill="#44bb99" y="52" x="120" width="40" height="52"></rect><rect id="blue 77aadd hs 247-260/275" fill="#77aadd" y="104" x="120" width="40" height="52"></rect><rect id="cyan 99DDFF hs 229-245/275" fill="#06b6f6" y="156" x="120" width="40" height="52"></rect><rect id="str green BBCC33 hs 113-135/275" fill="#a0b41f" y="208" x="120" width="40" height="52"></rect><rect id="taupe cac0a9 hs 96-50/275" fill="#b1a792" y="260" x="120" width="40" height="52"></rect><rect id="gray dddddd/275" fill="#a8a8a8" y="312" x="120" width="40" height="52"></rect><rect id="orange ee8866 hs 42-30/275" fill="#ee8866" y="364" x="120" width="40" height="52"></rect><rect id="yellow eedd88 hs 100-85/275" fill="#baa85d" y="416" x="120" width="40" height="52"></rect><rect id="pink ffaabb hs 12-350/275" fill="#ff7199" y="468" x="120" width="40" height="52"></rect><rect id="comment gray 7e818b/275" fill="#a5a7ae" y="520" x="120" width="40" height="52"></rect><rect id="bg 292d3e hs 285-271/350" fill="#8e91a5" y="0" x="160" width="40" height="52"></rect><rect id="fn green 44bb99 hs 165-190/350" fill="#3da78b" y="52" x="160" width="40" height="52"></rect><rect id="blue 77aadd hs 247-260/350" fill="#5897d6" y="104" x="160" width="40" height="52"></rect><rect id="cyan 99DDFF hs 229-245/350" fill="#009eda" y="156" x="160" width="40" height="52"></rect><rect id="str green BBCC33 hs 113-135/350" fill="#889e1a" y="208" x="160" width="40" height="52"></rect><rect id="taupe cac0a9 hs 96-50/350" fill="#9b917f" y="260" x="160" width="40" height="52"></rect><rect id="gray dddddd/350" fill="#929292" y="312" x="160" width="40" height="52"></rect><rect id="orange ee8866 hs 42-30/350" fill="#e5663d" y="364" x="160" width="40" height="52"></rect><rect id="yellow eedd88 hs 100-85/350" fill="#a3924f" y="416" x="160" width="40" height="52"></rect><rect id="pink ffaabb hs 12-350/350" fill="#ff2e82" y="468" x="160" width="40" height="52"></rect><rect id="comment gray 7e818b/350" fill="#8f929a" y="520" x="160" width="40" height="52"></rect><rect id="bg 292d3e hs 285-271/400" fill="#787b94" y="0" x="200" width="40" height="52"></rect><rect id="fn green 44bb99 hs 165-190/400" fill="#338f7a" y="52" x="200" width="40" height="52"></rect><rect id="blue 77aadd hs 247-260/400" fill="#4b81ba" y="104" x="200" width="40" height="52"></rect><rect id="cyan 99DDFF hs 229-245/400" fill="#0287bd" y="156" x="200" width="40" height="52"></rect><rect id="str green BBCC33 hs 113-135/400" fill="#718915" y="208" x="200" width="40" height="52"></rect><rect id="taupe cac0a9 hs 96-50/400" fill="#867c6c" y="260" x="200" width="40" height="52"></rect><rect id="gray dddddd/400" fill="#7d7d7d" y="312" x="200" width="40" height="52"></rect><rect id="orange ee8866 hs 42-30/400" fill="#c75533" y="364" x="200" width="40" height="52"></rect><rect id="yellow eedd88 hs 100-85/400" fill="#8d7c44" y="416" x="200" width="40" height="52"></rect><rect id="pink ffaabb hs 12-350/400" fill="#e20173" y="468" x="200" width="40" height="52"></rect><rect id="comment gray 7e818b/400" fill="#7e818b" y="520" x="200" width="40" height="52"></rect><rect id="bg 292d3e hs 285-271/475" fill="#626783" y="0" x="240" width="40" height="52"></rect><rect id="fn green 44bb99 hs 165-190/475" fill="#2a7868" y="52" x="240" width="40" height="52"></rect><rect id="blue 77aadd hs 247-260/475" fill="#3d6b9f" y="104" x="240" width="40" height="52"></rect><rect id="cyan 99DDFF hs 229-245/475" fill="#0371a1" y="156" x="240" width="40" height="52"></rect><rect id="str green BBCC33 hs 113-135/475" fill="#5b7410" y="208" x="240" width="40" height="52"></rect><rect id="taupe cac0a9 hs 96-50/475" fill="#71675b" y="260" x="240" width="40" height="52"></rect><rect id="gray dddddd/475" fill="#696969" y="312" x="240" width="40" height="52"></rect><rect id="orange ee8866 hs 42-30/475" fill="#a9452a" y="364" x="240" width="40" height="52"></rect><rect id="yellow eedd88 hs 100-85/475" fill="#776838" y="416" x="240" width="40" height="52"></rect><rect id="pink ffaabb hs 12-350/475" fill="#be0264" y="468" x="240" width="40" height="52"></rect><rect id="comment gray 7e818b/475" fill="#656874" y="520" x="240" width="40" height="52"></rect><rect id="bg 292d3e hs 285-271/550" fill="#4e536f" y="0" x="280" width="40" height="52"></rect><rect id="fn green 44bb99 hs 165-190/550" fill="#1f6256" y="52" x="280" width="40" height="52"></rect><rect id="blue 77aadd hs 247-260/550" fill="#305785" y="104" x="280" width="40" height="52"></rect><rect id="cyan 99DDFF hs 229-245/550" fill="#015c86" y="156" x="280" width="40" height="52"></rect><rect id="str green BBCC33 hs 113-135/550" fill="#475f0b" y="208" x="280" width="40" height="52"></rect><rect id="taupe cac0a9 hs 96-50/550" fill="#5d534a" y="260" x="280" width="40" height="52"></rect><rect id="gray dddddd/550" fill="#555555" y="312" x="280" width="40" height="52"></rect><rect id="orange ee8866 hs 42-30/550" fill="#8c3620" y="364" x="280" width="40" height="52"></rect><rect id="yellow eedd88 hs 100-85/550" fill="#62542c" y="416" x="280" width="40" height="52"></rect><rect id="pink ffaabb hs 12-350/550" fill="#9c0054" y="468" x="280" width="40" height="52"></rect><rect id="comment gray 7e818b/550" fill="#515561" y="520" x="280" width="40" height="52"></rect><rect id="bg 292d3e hs 285-271/625" fill="#3c4157" y="0" x="320" width="40" height="52"></rect><rect id="fn green 44bb99 hs 165-190/625" fill="#184c44" y="52" x="320" width="40" height="52"></rect><rect id="blue 77aadd hs 247-260/625" fill="#24436a" y="104" x="320" width="40" height="52"></rect><rect id="cyan 99DDFF hs 229-245/625" fill="#02476b" y="156" x="320" width="40" height="52"></rect><rect id="str green BBCC33 hs 113-135/625" fill="#344b06" y="208" x="320" width="40" height="52"></rect><rect id="taupe cac0a9 hs 96-50/625" fill="#494139" y="260" x="320" width="40" height="52"></rect><rect id="gray dddddd/625" fill="#424242" y="312" x="320" width="40" height="52"></rect><rect id="orange ee8866 hs 42-30/625" fill="#702818" y="364" x="320" width="40" height="52"></rect><rect id="yellow eedd88 hs 100-85/625" fill="#4d4121" y="416" x="320" width="40" height="52"></rect><rect id="pink ffaabb hs 12-350/625" fill="#7b0044" y="468" x="320" width="40" height="52"></rect><rect id="comment gray 7e818b/625" fill="#3f424c" y="520" x="320" width="40" height="52"></rect><rect id="bg 292d3e hs 285-271/700" fill="#292d3e" y="0" x="360" width="40" height="52"></rect><rect id="fn green 44bb99 hs 165-190/700" fill="#0f3833" y="52" x="360" width="40" height="52"></rect><rect id="blue 77aadd hs 247-260/700" fill="#193151" y="104" x="360" width="40" height="52"></rect><rect id="cyan 99DDFF hs 229-245/700" fill="#013451" y="156" x="360" width="40" height="52"></rect><rect id="str green BBCC33 hs 113-135/700" fill="#233804" y="208" x="360" width="40" height="52"></rect><rect id="taupe cac0a9 hs 96-50/700" fill="#362f29" y="260" x="360" width="40" height="52"></rect><rect id="gray dddddd/700" fill="#303030" y="312" x="360" width="40" height="52"></rect><rect id="orange ee8866 hs 42-30/700" fill="#541a0f" y="364" x="360" width="40" height="52"></rect><rect id="yellow eedd88 hs 100-85/700" fill="#392f17" y="416" x="360" width="40" height="52"></rect><rect id="pink ffaabb hs 12-350/700" fill="#5c0034" y="468" x="360" width="40" height="52"></rect><rect id="comment gray 7e818b/700" fill="#2e3038" y="520" x="360" width="40" height="52"></rect><rect id="bg 292d3e hs 285-271/750" fill="#1b1f2b" y="0" x="400" width="40" height="52"></rect><rect id="fn green 44bb99 hs 165-190/750" fill="#072522" y="52" x="400" width="40" height="52"></rect><rect id="blue 77aadd hs 247-260/750" fill="#0e1f38" y="104" x="400" width="40" height="52"></rect><rect id="cyan 99DDFF hs 229-245/750" fill="#002238" y="156" x="400" width="40" height="52"></rect><rect id="str green BBCC33 hs 113-135/750" fill="#142502" y="208" x="400" width="40" height="52"></rect><rect id="taupe cac0a9 hs 96-50/750" fill="#241e1a" y="260" x="400" width="40" height="52"></rect><rect id="gray dddddd/750" fill="#1f1f1f" y="312" x="400" width="40" height="52"></rect><rect id="orange ee8866 hs 42-30/750" fill="#3a0e07" y="364" x="400" width="40" height="52"></rect><rect id="yellow eedd88 hs 100-85/750" fill="#261e0d" y="416" x="400" width="40" height="52"></rect><rect id="pink ffaabb hs 12-350/750" fill="#3f0023" y="468" x="400" width="40" height="52"></rect><rect id="comment gray 7e818b/750" fill="#1d1f25" y="520" x="400" width="40" height="52"></rect><rect id="bg 292d3e hs 285-271/825" fill="#0d0f17" y="0" x="440" width="40" height="52"></rect><rect id="fn green 44bb99 hs 165-190/825" fill="#031311" y="52" x="440" width="40" height="52"></rect><rect id="blue 77aadd hs 247-260/825" fill="#050f20" y="104" x="440" width="40" height="52"></rect><rect id="cyan 99DDFF hs 229-245/825" fill="#001120" y="156" x="440" width="40" height="52"></rect><rect id="str green BBCC33 hs 113-135/825" fill="#081301" y="208" x="440" width="40" height="52"></rect><rect id="taupe cac0a9 hs 96-50/825" fill="#130e0c" y="260" x="440" width="40" height="52"></rect><rect id="gray dddddd/825" fill="#0f0f0f" y="312" x="440" width="40" height="52"></rect><rect id="orange ee8866 hs 42-30/825" fill="#210603" y="364" x="440" width="40" height="52"></rect><rect id="yellow eedd88 hs 100-85/825" fill="#130f05" y="416" x="440" width="40" height="52"></rect><rect id="pink ffaabb hs 12-350/825" fill="#230013" y="468" x="440" width="40" height="52"></rect><rect id="comment gray 7e818b/825" fill="#0e0f13" y="520" x="440" width="40" height="52"></rect><rect id="bg 292d3e hs 285-271/900" fill="#030305" y="0" x="480" width="40" height="52"></rect><rect id="fn green 44bb99 hs 165-190/900" fill="#010404" y="52" x="480" width="40" height="52"></rect><rect id="blue 77aadd hs 247-260/900" fill="#010309" y="104" x="480" width="40" height="52"></rect><rect id="cyan 99DDFF hs 229-245/900" fill="#000409" y="156" x="480" width="40" height="52"></rect><rect id="str green BBCC33 hs 113-135/900" fill="#020401" y="208" x="480" width="40" height="52"></rect><rect id="taupe cac0a9 hs 96-50/900" fill="#040302" y="260" x="480" width="40" height="52"></rect><rect id="gray dddddd/900" fill="#030303" y="312" x="480" width="40" height="52"></rect><rect id="orange ee8866 hs 42-30/900" fill="#0a0101" y="364" x="480" width="40" height="52"></rect><rect id="yellow eedd88 hs 100-85/900" fill="#040301" y="416" x="480" width="40" height="52"></rect><rect id="pink ffaabb hs 12-350/900" fill="#0b0004" y="468" x="480" width="40" height="52"></rect><rect id="comment gray 7e818b/900" fill="#030304" y="520" x="480" width="40" height="52"></rect></g></svg>